<?xml version="1.0" standalone="no"?>
<!DOCTYPE svg PUBLIC "-//W3C//DTD SVG 20010904//EN"
 "http://www.w3.org/TR/2001/REC-SVG-20010904/DTD/svg10.dtd">
<svg version="1.0" xmlns="http://www.w3.org/2000/svg"
 width="100.000000pt" height="100.000000pt" viewBox="0 50 100 400"
 preserveAspectRatio="xMidYMid meet">

<g transform="translate(0.000000,133.000000) scale(0.100000,-0.100000)"
fill="#ff1616" stroke="none">
<path d="M488 1252 c-32 -19 -58 -68 -58 -107 0 -94 126 -151 199 -90 62 53
62 137 0 190 -37 30 -99 33 -141 7z m104 -59 c22 -20 23 -61 1 -85 -43 -48
-122 8 -92 65 22 41 59 49 91 20z"/>
<path d="M122 1030 c-18 -11 -40 -36 -48 -56 -43 -102 63 -205 162 -158 43 21
64 51 70 101 6 47 -11 81 -55 110 -42 28 -86 29 -129 3z m103 -65 c29 -28 31
-42 9 -73 -18 -26 -65 -30 -88 -6 -24 23 -20 70 6 88 31 22 45 20 73 -9z"/>
<path d="M874 1040 c-11 -4 -33 -22 -47 -40 -73 -86 17 -223 124 -191 105 32
123 177 28 227 -31 15 -73 17 -105 4z m86 -70 c39 -39 14 -100 -41 -100 -29 0
-59 31 -59 61 0 19 45 59 66 59 8 0 23 -9 34 -20z"/>
<path d="M472 936 l-37 -34 -5 -209 -5 -208 -137 -3 c-163 -3 -168 0 -168 86
0 78 16 106 62 110 49 4 68 -23 68 -101 0 -58 0 -58 28 -55 25 3 27 6 30 60 2
34 -3 71 -12 92 -17 41 -68 76 -111 76 -43 0 -94 -35 -111 -75 -18 -45 -18
-168 0 -204 19 -36 55 -51 121 -51 l55 0 0 -135 c0 -155 10 -188 65 -211 66
-27 120 -13 156 42 16 24 19 47 19 147 l0 117 -30 0 -30 0 0 -110 c0 -97 -2
-112 -20 -130 -11 -11 -29 -20 -40 -20 -11 0 -29 9 -40 20 -18 18 -20 33 -20
150 l0 130 149 0 149 0 4 -138 c4 -150 11 -172 61 -202 56 -34 122 -20 166 36
19 24 21 40 21 145 l0 119 -30 0 -30 0 0 -104 c0 -89 -3 -107 -21 -130 -23
-30 -45 -33 -77 -10 -21 14 -22 22 -22 150 l0 134 146 0 c203 0 213 7 214 147
0 106 -10 135 -57 164 -47 30 -105 21 -147 -20 -29 -30 -31 -36 -36 -129 l-5
-97 -150 0 -150 0 -3 184 c-2 148 0 188 12 206 19 28 48 36 78 21 23 -11 23
-15 28 -191 l5 -180 30 0 30 0 3 167 c3 190 -5 224 -60 258 -52 31 -101 27
-146 -14z m492 -272 c12 -11 16 -36 16 -95 0 -74 -1 -79 -24 -85 -13 -3 -38
-4 -57 -2 l-34 3 -3 74 c-4 88 12 121 58 121 15 0 36 -7 44 -16z"/>
</g>
</svg>
